<svg width="2000" height="440" viewBox="0 0 1440 295" fill="none" xmlns="http://www.w3.org/2000/svg">
<path d="M0 64C327.563 381.208 1037.96 -179.816 1440 64V304H0V64Z" fill="#22B14C"/>
<g filter="url(#filter0_d_6_103)">
<path d="M1066.41 158.98C1065.03 158.98 1063.62 158.95 1062.18 158.89C1060.74 158.83 1059.33 158.8 1057.95 158.8C1056.69 158.14 1055.25 157.81 1053.63 157.81C1053.69 157.69 1053.72 157.51 1053.72 157.27C1053.72 156.97 1053.69 156.7 1053.63 156.46C1053.57 156.22 1053.54 155.95 1053.54 155.65C1053.54 154.93 1053.93 154.57 1054.71 154.57L1055.43 154.66V153.67C1054.77 153.37 1054.11 152.95 1053.45 152.41C1052.85 151.81 1052.55 151.09 1052.55 150.25C1052.55 149.65 1052.73 149.17 1053.09 148.81C1053.51 148.45 1053.99 148.18 1054.53 148C1055.13 147.82 1055.73 147.73 1056.33 147.73C1056.99 147.67 1057.53 147.64 1057.95 147.64C1059.09 147.64 1060.2 147.7 1061.28 147.82C1062.42 147.94 1063.56 148 1064.7 148C1064.94 148 1065.18 148 1065.42 148C1065.66 147.94 1065.9 147.91 1066.14 147.91C1065.96 143.95 1065.87 140.02 1065.87 136.12C1066.23 135.4 1066.47 134.65 1066.59 133.87C1066.71 133.09 1066.77 132.31 1066.77 131.53L1067.4 131.62C1067.64 131.62 1067.85 131.62 1068.03 131.62C1068.27 131.56 1068.51 131.53 1068.75 131.53C1069.11 131.53 1069.41 131.62 1069.65 131.8C1069.89 131.92 1070.01 132.22 1070.01 132.7L1069.92 133.42H1070.91C1071.21 132.7 1071.66 132.04 1072.26 131.44C1072.86 130.84 1073.58 130.54 1074.42 130.54C1075.02 130.54 1075.5 130.93 1075.86 131.71C1076.28 132.49 1076.58 133.48 1076.76 134.68C1077 135.82 1077.15 137.11 1077.21 138.55C1077.33 139.99 1077.39 141.4 1077.39 142.78C1077.45 144.1 1077.48 145.3 1077.48 146.38V148.63C1079.34 148.87 1081.17 149.2 1082.97 149.62C1084.77 149.98 1086.6 150.16 1088.46 150.16C1088.82 150.16 1089.21 150.13 1089.63 150.07C1090.05 150.01 1090.44 149.98 1090.8 149.98C1091.34 149.98 1091.79 150.1 1092.15 150.34C1092.57 150.58 1092.78 151.06 1092.78 151.78C1090.38 151.66 1088.04 151.57 1085.76 151.51C1084.14 151.45 1082.52 151.3 1080.9 151.06C1082.52 151.3 1084.14 151.48 1085.76 151.6C1088.04 151.78 1090.35 152.02 1092.69 152.32C1092.63 152.5 1092.6 152.74 1092.6 153.04C1092.6 153.4 1092.63 153.64 1092.69 153.76H1093.77C1094.43 154.3 1094.76 155.02 1094.76 155.92C1094.76 156.94 1094.34 157.87 1093.5 158.71C1093.02 158.53 1092 158.35 1090.44 158.17C1088.94 157.93 1087.29 157.72 1085.49 157.54C1083.69 157.36 1081.98 157.21 1080.36 157.09C1078.74 156.97 1077.63 156.91 1077.03 156.91C1079.73 157.21 1082.4 157.54 1085.04 157.9C1087.68 158.2 1090.32 158.68 1092.96 159.34C1092.66 159.64 1092.33 159.88 1091.97 160.06C1091.61 160.24 1091.22 160.33 1090.8 160.33C1089.78 160.33 1088.76 160.27 1087.74 160.15C1086.78 159.97 1085.79 159.82 1084.77 159.7V158.71C1084.41 158.77 1084.05 158.83 1083.69 158.89C1083.33 158.89 1082.97 158.89 1082.61 158.89C1081.65 158.89 1080.69 158.83 1079.73 158.71C1078.83 158.59 1077.87 158.47 1076.85 158.35C1077.15 158.65 1077.54 158.89 1078.02 159.07C1078.44 159.19 1078.83 159.31 1079.19 159.43L1076.85 159.25C1076.79 160.45 1076.67 161.68 1076.49 162.94C1076.31 164.2 1076.22 165.43 1076.22 166.63C1076.22 166.93 1076.25 167.38 1076.31 167.98C1076.43 168.52 1076.49 169.06 1076.49 169.6C1076.49 170.14 1076.4 170.62 1076.22 171.04C1076.04 171.4 1075.68 171.58 1075.14 171.58C1074.96 170.56 1074.84 169.54 1074.78 168.52C1074.72 167.44 1074.69 166.39 1074.69 165.37L1074.33 171.58C1074.21 171.58 1074.09 171.58 1073.97 171.58C1073.85 171.52 1073.73 171.49 1073.61 171.49C1073.49 171.49 1073.37 171.52 1073.25 171.58C1073.13 171.58 1073.01 171.58 1072.89 171.58V172.75C1072.29 173.53 1071.57 173.92 1070.73 173.92C1070.19 173.92 1069.71 173.8 1069.29 173.56C1068.87 173.32 1068.42 173.05 1067.94 172.75C1068.12 172.33 1068.27 171.67 1068.39 170.77C1068.51 169.87 1068.57 168.88 1068.57 167.8C1068.63 166.72 1068.66 165.67 1068.66 164.65C1068.72 163.63 1068.75 162.76 1068.75 162.04V159.16C1068.51 161.32 1068.33 163.51 1068.21 165.73C1068.15 167.89 1067.88 170.05 1067.4 172.21C1067.1 171.91 1066.83 171.61 1066.59 171.31C1066.35 170.95 1066.23 170.53 1066.23 170.05C1066.23 169.03 1066.26 168.1 1066.32 167.26C1066.44 166.36 1066.5 165.4 1066.5 164.38L1067.4 163.93C1067.28 163.27 1067.19 162.67 1067.13 162.13C1067.07 161.53 1067.04 160.9 1067.04 160.24C1067.04 160.06 1067.04 159.88 1067.04 159.7C1067.1 159.46 1067.13 159.22 1067.13 158.98C1066.71 159.58 1066.5 160.21 1066.5 160.87C1066.56 161.47 1066.53 162.1 1066.41 162.76V158.98ZM1066.41 142.51C1066.47 142.63 1066.5 142.99 1066.5 143.59C1066.5 144.13 1066.5 144.73 1066.5 145.39C1066.56 145.99 1066.62 146.56 1066.68 147.1C1066.74 147.58 1066.86 147.82 1067.04 147.82L1066.95 142.51H1066.41ZM1079.91 150.88L1080.9 151.06L1079.91 150.88ZM1127.37 163.192C1127.52 166.552 1127.66 169.912 1127.8 173.272C1128 176.632 1128.14 179.992 1128.24 183.352V183.712L1128.02 183.496V182.992C1127.78 178.672 1127.54 174.424 1127.3 170.248C1127.11 166.024 1127.01 161.752 1127.01 157.432V149.296C1127.01 148 1127.01 146.728 1127.01 145.48C1127.06 144.184 1127.11 142.888 1127.16 141.592C1127.2 140.104 1127.32 138.664 1127.52 137.272C1127.71 135.832 1127.8 134.344 1127.8 132.808H1128.09C1128.43 132.808 1128.72 132.784 1128.96 132.736C1129.2 132.688 1129.39 132.664 1129.53 132.664C1130.01 132.664 1130.3 132.976 1130.4 133.6C1130.49 134.224 1130.54 134.704 1130.54 135.04L1130.47 136.552H1131.33C1131.38 136.264 1131.45 135.808 1131.55 135.184C1131.69 134.512 1131.88 133.84 1132.12 133.168C1132.36 132.496 1132.63 131.92 1132.92 131.44C1133.25 130.912 1133.64 130.648 1134.07 130.648C1134.55 130.648 1134.91 131.08 1135.15 131.944C1135.44 132.808 1135.65 133.84 1135.8 135.04C1135.94 136.192 1136.01 137.392 1136.01 138.64C1136.06 139.84 1136.08 140.8 1136.08 141.52V142.384C1136.08 147.904 1136.13 153.424 1136.23 158.944C1136.32 164.464 1136.37 169.984 1136.37 175.504C1136.37 175.936 1136.35 176.392 1136.3 176.872C1136.3 177.304 1136.3 177.736 1136.3 178.168C1136.3 178.408 1136.3 178.624 1136.3 178.816C1136.35 179.008 1136.37 179.224 1136.37 179.464H1137.09C1137.52 179.464 1137.96 179.488 1138.39 179.536C1138.82 179.536 1139.25 179.536 1139.68 179.536C1142.71 179.536 1145.68 179.392 1148.61 179.104C1151.59 178.768 1154.59 178.6 1157.61 178.6H1157.9C1158.38 178.6 1158.96 178.672 1159.63 178.816C1160.3 178.912 1160.64 179.248 1160.64 179.824V179.968C1158.09 179.968 1155.6 180.064 1153.15 180.256C1150.7 180.4 1148.2 180.592 1145.66 180.832C1147.53 180.736 1149.38 180.616 1151.2 180.472C1153.08 180.328 1154.95 180.256 1156.82 180.256C1157.44 180.256 1158.04 180.28 1158.62 180.328C1159.2 180.328 1159.8 180.352 1160.42 180.4L1160.13 181.264C1160.42 181.312 1160.8 181.384 1161.28 181.48C1161.76 181.528 1162.22 181.648 1162.65 181.84C1163.13 182.032 1163.54 182.272 1163.88 182.56C1164.21 182.8 1164.38 183.112 1164.38 183.496C1164.38 184.168 1164.07 184.624 1163.44 184.864C1162.82 185.152 1162.24 185.416 1161.72 185.656C1161 185.416 1160.23 185.272 1159.41 185.224C1158.64 185.224 1157.88 185.224 1157.11 185.224C1155.43 185.224 1153.77 185.296 1152.14 185.44C1150.6 185.584 1149.04 185.728 1147.46 185.872C1148.61 185.824 1149.72 185.776 1150.77 185.728C1151.97 185.68 1153.17 185.656 1154.37 185.656C1155.43 185.656 1156.46 185.68 1157.47 185.728C1158.52 185.776 1159.58 185.896 1160.64 186.088C1159.77 186.472 1158.69 186.76 1157.4 186.952C1156.15 187.144 1154.83 187.288 1153.44 187.384C1152.09 187.48 1150.75 187.528 1149.4 187.528C1148.06 187.576 1146.88 187.624 1145.88 187.672L1145.23 186.952C1144.17 187.192 1143.12 187.336 1142.06 187.384C1141 187.48 1139.92 187.528 1138.82 187.528C1137.67 187.528 1136.52 187.48 1135.36 187.384C1134.21 187.288 1133.08 187.144 1131.98 186.952C1131.45 186.376 1130.92 185.8 1130.4 185.224C1129.87 184.696 1129.29 184.168 1128.67 183.64C1128.67 180.184 1128.57 176.776 1128.38 173.416C1128.24 170.056 1128.04 166.648 1127.8 163.192H1127.37ZM1142.71 186.232C1141.56 186.28 1140.36 186.304 1139.11 186.304C1137.62 186.304 1136.23 186.256 1134.93 186.16C1133.64 186.064 1132.72 185.896 1132.2 185.656L1130.04 183.568L1129.39 175.072V176.656C1129.39 177.76 1129.46 178.864 1129.6 179.968C1129.75 181.072 1129.82 182.176 1129.82 183.28V183.712C1130.2 184.096 1130.56 184.48 1130.9 184.864C1131.28 185.248 1131.64 185.656 1131.98 186.088H1132.48C1133.54 186.088 1134.57 186.136 1135.58 186.232C1136.64 186.376 1137.69 186.448 1138.75 186.448C1139.85 186.448 1140.93 186.4 1141.99 186.304C1142.37 186.304 1142.78 186.28 1143.21 186.232H1142.71ZM1136.59 181.192C1136.83 181.24 1137.07 181.288 1137.31 181.336C1137.6 181.336 1137.88 181.336 1138.17 181.336C1139.42 181.336 1140.67 181.312 1141.92 181.264C1143.16 181.216 1144.41 181.072 1145.66 180.832C1144.12 180.928 1142.61 180.976 1141.12 180.976C1139.64 180.976 1138.12 181 1136.59 181.048V181.192ZM1131.76 187.456C1132.58 187.696 1133.42 187.84 1134.28 187.888C1135.2 187.984 1136.13 188.032 1137.09 188.032C1137.67 188.032 1138.22 188.008 1138.75 187.96C1139.23 187.96 1139.68 187.96 1140.12 187.96C1139.83 188.008 1139.49 188.032 1139.11 188.032C1138.72 188.08 1138.34 188.104 1137.96 188.104H1136.52C1135.94 188.104 1135.34 188.08 1134.72 188.032C1134.14 187.984 1133.56 187.936 1132.99 187.888C1132.46 187.84 1132.08 187.768 1131.84 187.672C1131.69 187.528 1131.45 187.264 1131.12 186.88C1130.78 186.544 1130.42 186.184 1130.04 185.8C1129.65 185.416 1129.29 185.032 1128.96 184.648C1128.67 184.312 1128.5 184.096 1128.45 184L1131.76 187.456ZM1134.72 180.904L1133.13 180.616C1133.42 180.712 1133.85 180.904 1134.43 181.192C1135 181.432 1135.44 181.576 1135.72 181.624L1135.51 180.832L1134.72 180.904ZM1193.14 185.296C1191.31 185.92 1189.92 186.256 1188.96 186.304C1188 186.4 1187.16 186.472 1186.44 186.52C1183.75 186.52 1181.33 186.016 1179.17 185.008C1177.01 184 1175.16 182.632 1173.63 180.904C1172.09 179.176 1170.89 177.16 1170.03 174.856C1169.21 172.504 1168.8 170.008 1168.8 167.368C1168.8 165.832 1168.95 164.248 1169.23 162.616C1169.52 160.936 1169.95 159.304 1170.53 157.72C1171.11 156.088 1171.85 154.576 1172.76 153.184C1173.63 151.792 1174.66 150.544 1175.86 149.44C1174.61 150.448 1173.55 151.648 1172.69 153.04C1171.78 154.432 1171.01 155.944 1170.39 157.576C1169.76 159.16 1169.31 160.816 1169.02 162.544C1168.73 164.224 1168.59 165.856 1168.59 167.44C1168.59 169.456 1168.9 171.616 1169.52 173.92C1170.19 176.176 1171.25 178.288 1172.69 180.256C1174.13 182.176 1175.98 183.784 1178.23 185.08C1180.54 186.376 1183.32 187.024 1186.59 187.024C1188.12 187.024 1189.73 186.808 1191.41 186.376C1189.59 187.576 1187.55 188.176 1185.29 188.176C1183.47 188.176 1181.74 187.888 1180.11 187.312C1178.52 186.784 1177.03 186.016 1175.64 185.008C1174.3 184.048 1173.07 182.896 1171.97 181.552C1170.87 180.208 1169.93 178.768 1169.16 177.232L1169.81 176.656C1168.99 175.024 1168.39 173.392 1168.01 171.76C1167.67 170.128 1167.51 168.472 1167.51 166.792C1167.51 164.344 1167.84 161.992 1168.51 159.736C1169.23 157.48 1170.17 155.344 1171.32 153.328L1173.05 150.952C1173.34 150.424 1173.75 149.896 1174.27 149.368C1174.85 148.84 1175.47 148.336 1176.15 147.856C1176.82 147.328 1177.51 146.872 1178.23 146.488C1179 146.056 1179.72 145.672 1180.39 145.336C1182.12 144.472 1183.85 143.704 1185.58 143.032C1187.31 142.312 1189.32 141.784 1191.63 141.448L1191.34 141.232C1186.92 141.664 1183.18 142.744 1180.11 144.472C1177.03 146.152 1174.54 148.216 1172.62 150.664C1170.7 153.112 1169.31 155.8 1168.44 158.728C1167.58 161.608 1167.15 164.44 1167.15 167.224C1167.15 168.712 1167.27 170.224 1167.51 171.76C1167.79 173.248 1168.2 174.736 1168.73 176.224C1167.53 173.344 1166.93 170.296 1166.93 167.08C1166.93 163.912 1167.46 160.768 1168.51 157.648C1169.57 154.528 1171.23 151.648 1173.48 149.008C1176.36 146.368 1179.51 144.352 1182.91 142.96C1186.32 141.52 1189.61 140.8 1192.78 140.8C1193.79 140.8 1194.82 140.968 1195.87 141.304C1196.93 141.64 1197.89 142.168 1198.75 142.888C1199.62 143.56 1200.31 144.448 1200.84 145.552C1201.42 146.656 1201.71 148 1201.71 149.584C1201.71 150.88 1201.39 152.464 1200.77 154.336C1200.15 156.208 1199.21 158.032 1197.96 159.808C1196.76 161.536 1195.25 163.024 1193.43 164.272C1191.6 165.472 1189.49 166.072 1187.09 166.072H1184.71C1182.94 165.688 1181.31 165.256 1179.82 164.776C1178.38 164.248 1177.01 163.84 1175.71 163.552C1175.52 164.32 1175.4 165.064 1175.35 165.784C1175.35 166.456 1175.35 167.128 1175.35 167.8C1175.35 169.192 1175.5 170.56 1175.79 171.904C1176.12 173.2 1176.63 174.4 1177.3 175.504C1177.97 176.608 1178.81 177.544 1179.82 178.312C1180.87 179.032 1182.15 179.488 1183.63 179.68C1184.55 179.872 1185.34 179.992 1186.01 180.04C1186.68 180.04 1187.23 180.064 1187.67 180.112C1188.15 180.112 1188.48 180.184 1188.67 180.328C1188.91 180.424 1189.03 180.64 1189.03 180.976C1188.55 181.12 1188.05 181.216 1187.52 181.264C1187.04 181.312 1186.54 181.336 1186.01 181.336C1184.33 181.336 1182.82 181.072 1181.47 180.544C1180.13 179.968 1178.98 179.32 1178.02 178.6C1179.12 179.704 1180.44 180.496 1181.98 180.976C1183.51 181.408 1185.03 181.624 1186.51 181.624C1187.33 181.624 1188.17 181.552 1189.03 181.408C1188.94 181.696 1188.89 181.864 1188.89 181.912C1188.89 182.2 1189.01 182.392 1189.25 182.488C1189.44 182.44 1189.78 182.32 1190.26 182.128C1190.74 181.888 1191.22 181.672 1191.7 181.48C1192.23 181.24 1192.73 181.048 1193.21 180.904C1193.69 180.712 1194.03 180.616 1194.22 180.616C1194.46 180.616 1194.67 180.664 1194.87 180.76C1195.06 180.808 1195.15 181.072 1195.15 181.552C1195.15 182.032 1194.99 182.608 1194.65 183.28C1194.31 183.952 1193.81 184.624 1193.14 185.296ZM1183.2 156.784L1184.79 157.072C1185.31 157.168 1185.79 157.216 1186.23 157.216C1186.71 157.216 1187.26 157.072 1187.88 156.784C1188.55 156.448 1189.2 155.992 1189.83 155.416C1190.5 154.84 1191.07 154.12 1191.55 153.256C1192.08 152.392 1192.47 151.408 1192.71 150.304L1192.85 149.872C1192.18 149.872 1191.17 150.04 1189.83 150.376C1188.48 150.712 1187.09 151.168 1185.65 151.744C1184.21 152.272 1182.87 152.92 1181.62 153.688C1180.37 154.408 1179.51 155.2 1179.03 156.064C1179.75 156.208 1180.44 156.352 1181.11 156.496C1181.83 156.592 1182.53 156.688 1183.2 156.784ZM1179.89 162.112C1179.99 162.016 1180.03 161.872 1180.03 161.68C1180.08 161.488 1180.11 161.344 1180.11 161.248L1176.72 160.024L1176.36 161.032L1179.89 162.112ZM1177.87 178.456C1177.54 178.072 1177.2 177.688 1176.87 177.304C1176.58 176.968 1176.34 176.632 1176.15 176.296C1176.58 177.112 1177.15 177.832 1177.87 178.456ZM1233.48 165.136C1232.18 165.136 1231.2 165.112 1230.52 165.064C1229.9 165.016 1229.32 164.992 1228.8 164.992C1227.36 164.992 1226.08 165.064 1224.98 165.208C1223.88 165.352 1222.94 165.64 1222.17 166.072C1221.4 166.504 1220.83 167.128 1220.44 167.944C1220.06 168.76 1219.87 169.84 1219.87 171.184C1219.87 173.152 1220.08 174.616 1220.52 175.576C1221 176.488 1221.64 177.16 1222.46 177.592C1223.32 177.976 1224.36 178.216 1225.56 178.312C1226.76 178.408 1228.1 178.624 1229.59 178.96C1230.45 179.056 1231.32 179.128 1232.18 179.176C1233.04 179.176 1233.91 179.176 1234.77 179.176H1239.96C1237.56 179.032 1235.16 178.96 1232.76 178.96C1230.4 178.912 1228.27 178.696 1226.35 178.312C1224.48 177.928 1222.94 177.256 1221.74 176.296C1220.59 175.336 1220.01 173.872 1220.01 171.904C1220.01 170.32 1220.2 169.12 1220.59 168.304C1221.02 167.44 1221.57 166.816 1222.24 166.432C1222.96 166 1223.8 165.76 1224.76 165.712C1225.72 165.616 1226.76 165.568 1227.86 165.568C1229.2 165.568 1230.57 165.64 1231.96 165.784C1230.86 166.12 1229.73 166.384 1228.58 166.576C1227.48 166.72 1226.44 166.888 1225.48 167.08C1224.52 167.224 1223.68 167.44 1222.96 167.728C1222.29 167.968 1221.84 168.328 1221.6 168.808V172.048L1221.02 172.336C1221.21 173.536 1221.38 174.448 1221.52 175.072C1221.72 175.648 1222.2 176.104 1222.96 176.44C1223.73 176.728 1224.96 176.968 1226.64 177.16C1228.36 177.352 1230.86 177.664 1234.12 178.096H1239.31C1240.22 178.096 1240.75 178.072 1240.89 178.024C1241.08 177.928 1241.2 177.88 1241.25 177.88L1240.6 173.992C1240.51 173.032 1240.39 172.168 1240.24 171.4C1240.1 170.632 1239.91 169.816 1239.67 168.952C1239.62 169.096 1239.48 169.168 1239.24 169.168C1239.48 169.984 1239.67 170.848 1239.81 171.76C1240 172.672 1240.15 173.536 1240.24 174.352C1240.39 175.168 1240.48 175.864 1240.53 176.44C1240.63 177.016 1240.72 177.352 1240.82 177.448L1240.39 177.592C1240.29 177.64 1240.15 177.664 1239.96 177.664H1239.52C1239.19 177.664 1238.8 177.64 1238.37 177.592C1237.94 177.496 1237.39 177.448 1236.72 177.448H1234.34C1232.47 177.448 1230.74 177.352 1229.16 177.16C1227.67 176.968 1226.37 176.728 1225.27 176.44C1226.37 176.68 1227.72 176.872 1229.3 177.016C1230.98 177.208 1232.54 177.304 1233.98 177.304C1234.6 177.304 1235.25 177.304 1235.92 177.304C1236.64 177.256 1237.41 177.232 1238.23 177.232H1240.6C1240.46 177.088 1240.29 177.016 1240.1 177.016H1239.96C1239.76 173.704 1239.33 170.536 1238.66 167.512C1237.99 164.488 1236.91 161.848 1235.42 159.592C1233.93 157.288 1231.99 155.464 1229.59 154.12C1227.19 152.728 1224.19 152.032 1220.59 152.032C1219.58 152.032 1218.57 152.104 1217.56 152.248C1216.56 152.392 1215.52 152.584 1214.47 152.824C1214.56 152.728 1214.61 152.632 1214.61 152.536C1214.61 152.296 1214.52 152.08 1214.32 151.888C1214.13 151.648 1214.04 151.408 1214.04 151.168C1214.04 150.88 1214.32 150.616 1214.9 150.376C1215.52 150.088 1216.82 149.824 1218.79 149.584C1218.69 149.488 1218.62 149.344 1218.57 149.152C1218.57 148.96 1218.57 148.816 1218.57 148.72C1215.98 148.72 1213.96 148.672 1212.52 148.576C1211.08 148.432 1210.36 148.072 1210.36 147.496C1210.36 147.256 1210.65 146.92 1211.23 146.488C1211.85 146.056 1212.72 145.648 1213.82 145.264C1214.92 144.832 1216.24 144.472 1217.78 144.184C1219.36 143.848 1221.12 143.68 1223.04 143.68C1226.73 143.68 1229.9 144.256 1232.54 145.408C1235.18 146.512 1237.39 148 1239.16 149.872C1240.99 151.696 1242.45 153.784 1243.56 156.136C1244.71 158.488 1245.62 160.864 1246.29 163.264C1247.01 165.616 1247.54 167.92 1247.88 170.176C1248.21 172.384 1248.52 174.304 1248.81 175.936C1248.81 176.224 1248.81 176.512 1248.81 176.8C1248.86 177.088 1248.88 177.424 1248.88 177.808C1248.88 179.2 1248.62 180.424 1248.09 181.48C1247.61 182.488 1246.92 183.328 1246 184C1245.14 184.72 1244.11 185.248 1242.91 185.584C1241.76 185.968 1240.51 186.16 1239.16 186.16C1238.11 186.16 1236.74 186.136 1235.06 186.088C1233.38 186.04 1231.77 185.896 1230.24 185.656C1229.23 185.416 1228.12 185.224 1226.92 185.08C1225.72 184.984 1224.5 184.792 1223.25 184.504C1222 184.216 1220.78 183.808 1219.58 183.28C1218.43 182.752 1217.37 181.96 1216.41 180.904C1215.5 179.8 1214.76 178.384 1214.18 176.656C1213.65 174.928 1213.39 172.744 1213.39 170.104C1213.39 167.608 1213.96 165.616 1215.12 164.128C1216.27 162.592 1217.64 161.416 1219.22 160.6C1220.85 159.736 1222.51 159.184 1224.19 158.944C1225.87 158.656 1227.24 158.512 1228.29 158.512C1229.64 158.512 1230.52 158.608 1230.96 158.8C1231.39 158.992 1231.6 159.184 1231.6 159.376C1231.6 159.52 1231.58 159.64 1231.53 159.736C1230.33 159.736 1228.8 159.784 1226.92 159.88C1225.05 159.976 1223.23 160.288 1221.45 160.816C1219.72 161.344 1218.24 162.16 1216.99 163.264C1215.74 164.32 1215.12 165.832 1215.12 167.8C1215.55 166.024 1216.27 164.632 1217.28 163.624C1218.33 162.568 1219.53 161.8 1220.88 161.32C1222.22 160.792 1223.59 160.48 1224.98 160.384C1226.42 160.24 1227.72 160.168 1228.87 160.168H1231.32C1231.12 160.36 1231.03 160.552 1231.03 160.744C1231.03 160.936 1231.12 161.104 1231.32 161.248H1234.12C1234.89 161.392 1235.44 161.656 1235.78 162.04C1236.12 162.376 1236.28 162.688 1236.28 162.976C1236.28 163.408 1236.07 163.792 1235.64 164.128C1235.2 164.464 1234.48 164.8 1233.48 165.136ZM1221.38 182.56C1222.72 183.088 1224.09 183.496 1225.48 183.784C1226.92 184.072 1228.34 184.264 1229.73 184.36C1231.12 184.504 1232.42 184.576 1233.62 184.576C1232.66 184.48 1231.7 184.312 1230.74 184.072C1229.73 183.832 1228.84 183.616 1228.08 183.424C1227.26 183.232 1226.44 183.112 1225.63 183.064C1224.86 182.968 1224.04 182.848 1223.18 182.704C1222.36 182.56 1221.52 182.344 1220.66 182.056C1219.8 181.72 1218.93 181.24 1218.07 180.616C1218.98 181.432 1220.08 182.08 1221.38 182.56ZM1222.1 175C1222.05 174.952 1222.2 175.096 1222.53 175.432C1222.82 175.72 1223.2 175.936 1223.68 176.08C1223.44 175.984 1223.08 175.864 1222.6 175.72C1222.08 175.528 1221.81 175.24 1221.81 174.856L1222.1 175ZM1223.9 176.08C1223.85 176.08 1223.78 176.08 1223.68 176.08C1223.73 176.08 1223.8 176.08 1223.9 176.08ZM1286.73 146.776C1284.57 147.16 1282.49 147.568 1280.47 148C1278.45 148.384 1276.29 148.744 1273.99 149.08V149.152C1276.05 149.008 1278.12 148.72 1280.18 148.288C1282.25 147.808 1284.36 147.52 1286.52 147.424C1286.28 148 1285.65 148.504 1284.65 148.936C1283.69 149.32 1282.82 149.512 1282.05 149.512C1281.29 149.512 1280.9 149.32 1280.9 148.936C1279.75 149.416 1278.6 149.704 1277.45 149.8L1273.99 150.088V150.664C1275.14 150.472 1276.27 150.304 1277.37 150.16C1278.33 150.064 1279.32 149.92 1280.33 149.728C1278.21 150.208 1276.1 150.592 1273.99 150.88V156.496C1273.85 158.944 1273.77 161.44 1273.77 163.984C1273.77 166.528 1273.7 169.072 1273.56 171.616C1273.41 174.112 1273.13 176.608 1272.69 179.104C1272.26 181.552 1271.54 183.952 1270.53 186.304C1270.1 187.6 1269.57 188.896 1268.95 190.192C1268.33 191.536 1267.68 192.736 1267.01 193.792C1266.38 194.896 1265.76 195.784 1265.13 196.456C1264.56 197.128 1264.05 197.464 1263.62 197.464C1263.43 197.464 1263.29 197.344 1263.19 197.104C1263.96 196 1264.77 194.848 1265.64 193.648C1266.5 192.448 1267.27 191.152 1267.94 189.76C1268.47 188.416 1268.93 187.12 1269.31 185.872C1269.69 184.624 1270.05 183.328 1270.39 181.984C1269.62 184.816 1268.59 187.456 1267.29 189.904C1266 192.4 1264.56 194.656 1262.97 196.672C1262.88 196.432 1262.76 196.264 1262.61 196.168C1262.47 196.072 1262.23 196.024 1261.89 196.024L1260.6 197.968C1259.64 198.976 1258.87 199.48 1258.29 199.48C1257.91 199.48 1257.62 199.264 1257.43 198.832C1257.24 198.4 1257.14 197.824 1257.14 197.104L1257.57 195.376L1258.44 194.296C1259.49 193.048 1260.43 191.848 1261.25 190.696C1262.06 189.544 1262.76 188.32 1263.33 187.024C1263.96 185.776 1264.49 184.408 1264.92 182.92C1265.4 181.432 1265.83 179.704 1266.21 177.736C1265.97 178.888 1265.66 180.064 1265.28 181.264C1264.94 182.464 1264.56 183.616 1264.13 184.72C1263.69 185.824 1263.21 186.832 1262.69 187.744C1262.21 188.704 1261.65 189.496 1261.03 190.12L1258.01 193.864C1258.39 192.712 1258.87 191.632 1259.45 190.624C1260.02 189.664 1260.62 188.632 1261.25 187.528C1261.87 186.424 1262.47 185.2 1263.05 183.856C1263.62 182.512 1264.1 180.904 1264.49 179.032L1265.13 178.96C1265.52 176.368 1265.76 173.824 1265.85 171.328C1266 168.784 1266.07 166.192 1266.07 163.552C1266.07 161.68 1266.05 159.784 1266 157.864C1266 155.944 1265.97 153.976 1265.93 151.96C1265.83 152.008 1265.71 152.032 1265.57 152.032H1265.21C1265.25 154.576 1265.33 157.048 1265.42 159.448C1265.57 161.848 1265.64 164.224 1265.64 166.576C1265.64 168.592 1265.54 170.584 1265.35 172.552C1265.21 174.424 1264.92 176.296 1264.49 178.168C1264.87 176.488 1265.11 174.784 1265.21 173.056C1265.35 171.28 1265.42 169.48 1265.42 167.656C1265.42 165.16 1265.35 162.616 1265.21 160.024C1265.06 157.432 1264.97 154.768 1264.92 152.032C1264.63 152.08 1264.29 152.128 1263.91 152.176C1263.53 152.176 1262.93 152.176 1262.11 152.176C1261.01 151.744 1259.93 151.528 1258.87 151.528V151.24C1258.87 151.048 1258.85 150.856 1258.8 150.664C1258.8 150.424 1258.8 150.184 1258.8 149.944C1258.8 149.368 1259.06 149.08 1259.59 149.08L1260.17 148.288C1259.49 148.048 1258.99 147.664 1258.65 147.136C1258.32 146.608 1258.15 146.08 1258.15 145.552C1258.15 144.832 1258.39 144.328 1258.87 144.04C1259.35 143.752 1259.95 143.56 1260.67 143.464C1261.39 143.32 1262.16 143.272 1262.97 143.32C1263.79 143.32 1264.53 143.272 1265.21 143.176C1265.4 141.304 1265.71 139.336 1266.14 137.272C1266.62 135.16 1267.32 133.096 1268.23 131.08C1269.14 129.064 1270.32 127.168 1271.76 125.392C1273.25 123.616 1275.07 122.104 1277.23 120.856C1279.29 119.608 1281.43 118.864 1283.64 118.624C1285.89 118.336 1288.05 118.192 1290.12 118.192H1291.49C1291.92 118.192 1292.35 118.216 1292.78 118.264L1292.85 119.776C1292.85 119.968 1292.81 120.136 1292.71 120.28C1292.61 120.424 1292.4 120.544 1292.06 120.64C1291.77 120.688 1291.32 120.736 1290.69 120.784C1290.07 120.832 1289.25 120.856 1288.25 120.856C1288.25 120.952 1288.25 121.096 1288.25 121.288C1288.29 121.432 1288.37 121.504 1288.46 121.504C1290.48 121.648 1291.99 122.08 1293 122.8C1294.05 123.52 1294.58 124.072 1294.58 124.456C1294.58 124.888 1294.1 125.224 1293.14 125.464C1292.23 125.704 1291.08 125.968 1289.69 126.256C1288.34 126.496 1286.88 126.808 1285.29 127.192C1283.76 127.576 1282.37 128.128 1281.12 128.848C1277.18 131.584 1274.93 136.072 1274.35 142.312C1275.41 142.216 1276.46 142.072 1277.52 141.88C1278.62 141.688 1279.68 141.592 1280.69 141.592C1281.07 141.592 1281.5 141.472 1281.98 141.232C1282.46 140.992 1282.89 140.872 1283.28 140.872C1283.52 140.872 1283.69 140.944 1283.78 141.088C1283.93 141.184 1284.12 141.424 1284.36 141.808C1283.21 142.432 1282.1 142.864 1281.05 143.104C1281.53 143.008 1282.05 142.912 1282.63 142.816C1283.21 142.672 1283.78 142.48 1284.36 142.24C1284.45 142.48 1284.53 142.696 1284.57 142.888C1284.62 143.08 1284.69 143.224 1284.79 143.32C1284.84 143.32 1284.91 143.296 1285.01 143.248C1285.2 143.152 1285.34 143.104 1285.44 143.104C1285.97 143.296 1286.35 143.632 1286.59 144.112C1286.88 144.592 1287.02 145.072 1287.02 145.552C1287.02 145.792 1287 146.032 1286.95 146.272C1286.95 146.464 1286.88 146.632 1286.73 146.776ZM1266.86 174.208C1267.05 173.152 1267.22 172.072 1267.37 170.968C1267.56 169.816 1267.65 168.664 1267.65 167.512C1267.65 165.688 1267.53 163.84 1267.29 161.968C1267.1 160.24 1266.96 158.536 1266.86 156.856C1266.91 158.44 1266.96 160 1267.01 161.536C1267.1 163.216 1267.15 164.872 1267.15 166.504C1267.15 168.28 1267.08 170.032 1266.93 171.76C1266.84 173.44 1266.67 175.12 1266.43 176.8V176.872L1266.86 174.208ZM1272.05 171.04C1271.9 174.352 1271.42 177.784 1270.61 181.336C1271.42 177.928 1271.93 174.52 1272.12 171.112C1272.36 167.8 1272.48 164.536 1272.48 161.32C1272.38 164.536 1272.24 167.776 1272.05 171.04ZM1274.28 143.536C1274.71 143.68 1275.21 143.752 1275.79 143.752C1276.46 143.752 1277.13 143.68 1277.81 143.536C1278.53 143.392 1279.2 143.248 1279.82 143.104C1278.86 143.2 1277.93 143.296 1277.01 143.392C1276.15 143.488 1275.24 143.536 1274.28 143.536ZM1280.9 149.584C1280.71 149.632 1280.54 149.68 1280.4 149.728C1280.54 149.68 1280.71 149.632 1280.9 149.584Z" fill="black"/>
</g>
<defs>
<filter id="filter0_d_6_103" x="1047.55" y="118.192" width="252.028" height="91.288" filterUnits="userSpaceOnUse" color-interpolation-filters="sRGB">
<feFlood flood-opacity="0" result="BackgroundImageFix"/>
<feColorMatrix in="SourceAlpha" type="matrix" values="0 0 0 0 0 0 0 0 0 0 0 0 0 0 0 0 0 0 127 0" result="hardAlpha"/>
<feOffset dy="5"/>
<feGaussianBlur stdDeviation="2.5"/>
<feComposite in2="hardAlpha" operator="out"/>
<feColorMatrix type="matrix" values="0 0 0 0 0.965132 0 0 0 0 0.979167 0 0 0 0 0.277431 0 0 0 1 0"/>
<feBlend mode="normal" in2="BackgroundImageFix" result="effect1_dropShadow_6_103"/>
<feBlend mode="normal" in="SourceGraphic" in2="effect1_dropShadow_6_103" result="shape"/>
</filter>
</defs>
</svg>
