<svg width="253" height="92" viewBox="0 0 253 92" fill="none" xmlns="http://www.w3.org/2000/svg">
<g filter="url(#filter0_d_47_131)">
<path d="M19.4127 40.98C18.0327 40.98 16.6227 40.95 15.1827 40.89C13.7427 40.83 12.3327 40.8 10.9527 40.8C9.69273 40.14 8.25273 39.81 6.63273 39.81C6.69273 39.69 6.72273 39.51 6.72273 39.27C6.72273 38.97 6.69273 38.7 6.63273 38.46C6.57273 38.22 6.54273 37.95 6.54273 37.65C6.54273 36.93 6.93273 36.57 7.71273 36.57L8.43273 36.66V35.67C7.77273 35.37 7.11273 34.95 6.45273 34.41C5.85273 33.81 5.55273 33.09 5.55273 32.25C5.55273 31.65 5.73273 31.17 6.09273 30.81C6.51273 30.45 6.99273 30.18 7.53273 30C8.13273 29.82 8.73273 29.73 9.33274 29.73C9.99274 29.67 10.5327 29.64 10.9527 29.64C12.0927 29.64 13.2027 29.7 14.2827 29.82C15.4227 29.94 16.5627 30 17.7027 30C17.9427 30 18.1827 30 18.4227 30C18.6627 29.94 18.9027 29.91 19.1427 29.91C18.9627 25.95 18.8727 22.02 18.8727 18.12C19.2327 17.4 19.4727 16.65 19.5927 15.87C19.7127 15.09 19.7727 14.31 19.7727 13.53L20.4027 13.62C20.6427 13.62 20.8527 13.62 21.0327 13.62C21.2727 13.56 21.5127 13.53 21.7527 13.53C22.1127 13.53 22.4127 13.62 22.6527 13.8C22.8927 13.92 23.0127 14.22 23.0127 14.7L22.9227 15.42H23.9127C24.2127 14.7 24.6627 14.04 25.2627 13.44C25.8627 12.84 26.5827 12.54 27.4227 12.54C28.0227 12.54 28.5027 12.93 28.8627 13.71C29.2827 14.49 29.5827 15.48 29.7627 16.68C30.0027 17.82 30.1527 19.11 30.2127 20.55C30.3327 21.99 30.3927 23.4 30.3927 24.78C30.4527 26.1 30.4827 27.3 30.4827 28.38V30.63C32.3427 30.87 34.1727 31.2 35.9727 31.62C37.7727 31.98 39.6027 32.16 41.4627 32.16C41.8227 32.16 42.2127 32.13 42.6327 32.07C43.0527 32.01 43.4427 31.98 43.8027 31.98C44.3427 31.98 44.7927 32.1 45.1527 32.34C45.5727 32.58 45.7827 33.06 45.7827 33.78C43.3827 33.66 41.0427 33.57 38.7627 33.51C37.1427 33.45 35.5227 33.3 33.9027 33.06C35.5227 33.3 37.1427 33.48 38.7627 33.6C41.0427 33.78 43.3527 34.02 45.6927 34.32C45.6327 34.5 45.6027 34.74 45.6027 35.04C45.6027 35.4 45.6327 35.64 45.6927 35.76H46.7727C47.4327 36.3 47.7627 37.02 47.7627 37.92C47.7627 38.94 47.3427 39.87 46.5027 40.71C46.0227 40.53 45.0027 40.35 43.4427 40.17C41.9427 39.93 40.2927 39.72 38.4927 39.54C36.6927 39.36 34.9827 39.21 33.3627 39.09C31.7427 38.97 30.6327 38.91 30.0327 38.91C32.7327 39.21 35.4027 39.54 38.0427 39.9C40.6827 40.2 43.3227 40.68 45.9627 41.34C45.6627 41.64 45.3327 41.88 44.9727 42.06C44.6127 42.24 44.2227 42.33 43.8027 42.33C42.7827 42.33 41.7627 42.27 40.7427 42.15C39.7827 41.97 38.7927 41.82 37.7727 41.7V40.71C37.4127 40.77 37.0527 40.83 36.6927 40.89C36.3327 40.89 35.9727 40.89 35.6127 40.89C34.6527 40.89 33.6927 40.83 32.7327 40.71C31.8327 40.59 30.8727 40.47 29.8527 40.35C30.1527 40.65 30.5427 40.89 31.0227 41.07C31.4427 41.19 31.8327 41.31 32.1927 41.43L29.8527 41.25C29.7927 42.45 29.6727 43.68 29.4927 44.94C29.3127 46.2 29.2227 47.43 29.2227 48.63C29.2227 48.93 29.2527 49.38 29.3127 49.98C29.4327 50.52 29.4927 51.06 29.4927 51.6C29.4927 52.14 29.4027 52.62 29.2227 53.04C29.0427 53.4 28.6827 53.58 28.1427 53.58C27.9627 52.56 27.8427 51.54 27.7827 50.52C27.7227 49.44 27.6927 48.39 27.6927 47.37L27.3327 53.58C27.2127 53.58 27.0927 53.58 26.9727 53.58C26.8527 53.52 26.7327 53.49 26.6127 53.49C26.4927 53.49 26.3727 53.52 26.2527 53.58C26.1327 53.58 26.0127 53.58 25.8927 53.58V54.75C25.2927 55.53 24.5727 55.92 23.7327 55.92C23.1927 55.92 22.7127 55.8 22.2927 55.56C21.8727 55.32 21.4227 55.05 20.9427 54.75C21.1227 54.33 21.2727 53.67 21.3927 52.77C21.5127 51.87 21.5727 50.88 21.5727 49.8C21.6327 48.72 21.6627 47.67 21.6627 46.65C21.7227 45.63 21.7527 44.76 21.7527 44.04V41.16C21.5127 43.32 21.3327 45.51 21.2127 47.73C21.1527 49.89 20.8827 52.05 20.4027 54.21C20.1027 53.91 19.8327 53.61 19.5927 53.31C19.3527 52.95 19.2327 52.53 19.2327 52.05C19.2327 51.03 19.2627 50.1 19.3227 49.26C19.4427 48.36 19.5027 47.4 19.5027 46.38L20.4027 45.93C20.2827 45.27 20.1927 44.67 20.1327 44.13C20.0727 43.53 20.0427 42.9 20.0427 42.24C20.0427 42.06 20.0427 41.88 20.0427 41.7C20.1027 41.46 20.1327 41.22 20.1327 40.98C19.7127 41.58 19.5027 42.21 19.5027 42.87C19.5627 43.47 19.5327 44.1 19.4127 44.76V40.98ZM19.4127 24.51C19.4727 24.63 19.5027 24.99 19.5027 25.59C19.5027 26.13 19.5027 26.73 19.5027 27.39C19.5627 27.99 19.6227 28.56 19.6827 29.1C19.7427 29.58 19.8627 29.82 20.0427 29.82L19.9527 24.51H19.4127ZM32.9127 32.88L33.9027 33.06L32.9127 32.88ZM80.3711 45.192C80.5151 48.552 80.6591 51.912 80.8031 55.272C80.9951 58.632 81.1391 61.992 81.2351 65.352V65.712L81.0191 65.496V64.992C80.7791 60.672 80.5391 56.424 80.2991 52.248C80.1071 48.024 80.0111 43.752 80.0111 39.432V31.296C80.0111 30 80.0111 28.728 80.0111 27.48C80.0591 26.184 80.1071 24.888 80.1551 23.592C80.2031 22.104 80.3231 20.664 80.5151 19.272C80.7071 17.832 80.8031 16.344 80.8031 14.808H81.0911C81.4271 14.808 81.7151 14.784 81.9551 14.736C82.1951 14.688 82.3871 14.664 82.5311 14.664C83.0111 14.664 83.2991 14.976 83.3951 15.6C83.4911 16.224 83.5391 16.704 83.5391 17.04L83.4671 18.552H84.3311C84.3791 18.264 84.4511 17.808 84.5471 17.184C84.6911 16.512 84.8831 15.84 85.1231 15.168C85.3631 14.496 85.6271 13.92 85.9151 13.44C86.2511 12.912 86.6351 12.648 87.0671 12.648C87.5471 12.648 87.9071 13.08 88.1471 13.944C88.4351 14.808 88.6511 15.84 88.7951 17.04C88.9391 18.192 89.0111 19.392 89.0111 20.64C89.0591 21.84 89.0831 22.8 89.0831 23.52V24.384C89.0831 29.904 89.1311 35.424 89.2271 40.944C89.3231 46.464 89.3711 51.984 89.3711 57.504C89.3711 57.936 89.3471 58.392 89.2991 58.872C89.2991 59.304 89.2991 59.736 89.2991 60.168C89.2991 60.408 89.2991 60.624 89.2991 60.816C89.3471 61.008 89.3711 61.224 89.3711 61.464H90.0911C90.5231 61.464 90.9551 61.488 91.3871 61.536C91.8191 61.536 92.2511 61.536 92.6831 61.536C95.7071 61.536 98.6831 61.392 101.611 61.104C104.587 60.768 107.587 60.6 110.611 60.6H110.899C111.379 60.6 111.955 60.672 112.627 60.816C113.299 60.912 113.635 61.248 113.635 61.824V61.968C111.091 61.968 108.595 62.064 106.147 62.256C103.699 62.4 101.203 62.592 98.6591 62.832C100.531 62.736 102.379 62.616 104.203 62.472C106.075 62.328 107.947 62.256 109.819 62.256C110.443 62.256 111.043 62.28 111.619 62.328C112.195 62.328 112.795 62.352 113.419 62.4L113.131 63.264C113.419 63.312 113.803 63.384 114.283 63.48C114.763 63.528 115.219 63.648 115.651 63.84C116.131 64.032 116.539 64.272 116.875 64.56C117.211 64.8 117.379 65.112 117.379 65.496C117.379 66.168 117.067 66.624 116.443 66.864C115.819 67.152 115.243 67.416 114.715 67.656C113.995 67.416 113.227 67.272 112.411 67.224C111.643 67.224 110.875 67.224 110.107 67.224C108.427 67.224 106.771 67.296 105.139 67.44C103.603 67.584 102.043 67.728 100.459 67.872C101.611 67.824 102.715 67.776 103.771 67.728C104.971 67.68 106.171 67.656 107.371 67.656C108.427 67.656 109.459 67.68 110.467 67.728C111.523 67.776 112.579 67.896 113.635 68.088C112.771 68.472 111.691 68.76 110.395 68.952C109.147 69.144 107.827 69.288 106.435 69.384C105.091 69.48 103.747 69.528 102.403 69.528C101.059 69.576 99.8831 69.624 98.8751 69.672L98.2271 68.952C97.1711 69.192 96.1151 69.336 95.0591 69.384C94.0031 69.48 92.9231 69.528 91.8191 69.528C90.6671 69.528 89.5151 69.48 88.3631 69.384C87.2111 69.288 86.0831 69.144 84.9791 68.952C84.4511 68.376 83.9231 67.8 83.3951 67.224C82.8671 66.696 82.2911 66.168 81.6671 65.64C81.6671 62.184 81.5711 58.776 81.3791 55.416C81.2351 52.056 81.0431 48.648 80.8031 45.192H80.3711ZM95.7071 68.232C94.5551 68.28 93.3551 68.304 92.1071 68.304C90.6191 68.304 89.2271 68.256 87.9311 68.16C86.6351 68.064 85.7231 67.896 85.1951 67.656L83.0351 65.568L82.3871 57.072V58.656C82.3871 59.76 82.4591 60.864 82.6031 61.968C82.7471 63.072 82.8191 64.176 82.8191 65.28V65.712C83.2031 66.096 83.5631 66.48 83.8991 66.864C84.2831 67.248 84.6431 67.656 84.9791 68.088H85.4831C86.5391 68.088 87.5711 68.136 88.5791 68.232C89.6351 68.376 90.6911 68.448 91.7471 68.448C92.8511 68.448 93.9311 68.4 94.9871 68.304C95.3711 68.304 95.7791 68.28 96.2111 68.232H95.7071ZM89.5871 63.192C89.8271 63.24 90.0671 63.288 90.3071 63.336C90.5951 63.336 90.8831 63.336 91.1711 63.336C92.4191 63.336 93.6671 63.312 94.9151 63.264C96.1631 63.216 97.4111 63.072 98.6591 62.832C97.1231 62.928 95.6111 62.976 94.1231 62.976C92.6351 62.976 91.1231 63 89.5871 63.048V63.192ZM84.7631 69.456C85.5791 69.696 86.4191 69.84 87.2831 69.888C88.1951 69.984 89.1311 70.032 90.0911 70.032C90.6671 70.032 91.2191 70.008 91.7471 69.96C92.2271 69.96 92.6831 69.96 93.1151 69.96C92.8271 70.008 92.4911 70.032 92.1071 70.032C91.7231 70.08 91.3391 70.104 90.9551 70.104H89.5151C88.9391 70.104 88.3391 70.08 87.7151 70.032C87.1391 69.984 86.5631 69.936 85.9871 69.888C85.4591 69.84 85.0751 69.768 84.8351 69.672C84.6911 69.528 84.4511 69.264 84.1151 68.88C83.7791 68.544 83.4191 68.184 83.0351 67.8C82.6511 67.416 82.2911 67.032 81.9551 66.648C81.6671 66.312 81.4991 66.096 81.4511 66L84.7631 69.456ZM87.7151 62.904L86.1311 62.616C86.4191 62.712 86.8511 62.904 87.4271 63.192C88.0031 63.432 88.4351 63.576 88.7231 63.624L88.5071 62.832L87.7151 62.904ZM146.138 67.296C144.314 67.92 142.922 68.256 141.962 68.304C141.002 68.4 140.162 68.472 139.442 68.52C136.754 68.52 134.33 68.016 132.17 67.008C130.01 66 128.162 64.632 126.626 62.904C125.09 61.176 123.89 59.16 123.026 56.856C122.21 54.504 121.802 52.008 121.802 49.368C121.802 47.832 121.946 46.248 122.234 44.616C122.522 42.936 122.954 41.304 123.53 39.72C124.106 38.088 124.85 36.576 125.762 35.184C126.626 33.792 127.658 32.544 128.858 31.44C127.61 32.448 126.554 33.648 125.69 35.04C124.778 36.432 124.01 37.944 123.386 39.576C122.762 41.16 122.306 42.816 122.018 44.544C121.73 46.224 121.586 47.856 121.586 49.44C121.586 51.456 121.898 53.616 122.522 55.92C123.194 58.176 124.25 60.288 125.69 62.256C127.13 64.176 128.978 65.784 131.234 67.08C133.538 68.376 136.322 69.024 139.586 69.024C141.122 69.024 142.73 68.808 144.41 68.376C142.586 69.576 140.546 70.176 138.29 70.176C136.466 70.176 134.738 69.888 133.106 69.312C131.522 68.784 130.034 68.016 128.642 67.008C127.298 66.048 126.074 64.896 124.97 63.552C123.866 62.208 122.93 60.768 122.162 59.232L122.81 58.656C121.994 57.024 121.394 55.392 121.01 53.76C120.674 52.128 120.506 50.472 120.506 48.792C120.506 46.344 120.842 43.992 121.514 41.736C122.234 39.48 123.17 37.344 124.322 35.328L126.05 32.952C126.338 32.424 126.746 31.896 127.274 31.368C127.85 30.84 128.474 30.336 129.146 29.856C129.818 29.328 130.514 28.872 131.234 28.488C132.002 28.056 132.722 27.672 133.394 27.336C135.122 26.472 136.85 25.704 138.578 25.032C140.306 24.312 142.322 23.784 144.626 23.448L144.338 23.232C139.922 23.664 136.178 24.744 133.106 26.472C130.034 28.152 127.538 30.216 125.618 32.664C123.698 35.112 122.306 37.8 121.442 40.728C120.578 43.608 120.146 46.44 120.146 49.224C120.146 50.712 120.266 52.224 120.506 53.76C120.794 55.248 121.202 56.736 121.73 58.224C120.53 55.344 119.93 52.296 119.93 49.08C119.93 45.912 120.458 42.768 121.514 39.648C122.57 36.528 124.226 33.648 126.482 31.008C129.362 28.368 132.506 26.352 135.914 24.96C139.322 23.52 142.61 22.8 145.778 22.8C146.786 22.8 147.818 22.968 148.874 23.304C149.93 23.64 150.89 24.168 151.754 24.888C152.618 25.56 153.314 26.448 153.842 27.552C154.418 28.656 154.706 30 154.706 31.584C154.706 32.88 154.394 34.464 153.77 36.336C153.146 38.208 152.21 40.032 150.962 41.808C149.762 43.536 148.25 45.024 146.426 46.272C144.602 47.472 142.49 48.072 140.09 48.072H137.714C135.938 47.688 134.306 47.256 132.818 46.776C131.378 46.248 130.01 45.84 128.714 45.552C128.522 46.32 128.402 47.064 128.354 47.784C128.354 48.456 128.354 49.128 128.354 49.8C128.354 51.192 128.498 52.56 128.786 53.904C129.122 55.2 129.626 56.4 130.298 57.504C130.97 58.608 131.81 59.544 132.818 60.312C133.874 61.032 135.146 61.488 136.634 61.68C137.546 61.872 138.338 61.992 139.01 62.04C139.682 62.04 140.234 62.064 140.666 62.112C141.146 62.112 141.482 62.184 141.674 62.328C141.914 62.424 142.034 62.64 142.034 62.976C141.554 63.12 141.05 63.216 140.522 63.264C140.042 63.312 139.538 63.336 139.01 63.336C137.33 63.336 135.818 63.072 134.474 62.544C133.13 61.968 131.978 61.32 131.018 60.6C132.122 61.704 133.442 62.496 134.978 62.976C136.514 63.408 138.026 63.624 139.514 63.624C140.33 63.624 141.17 63.552 142.034 63.408C141.938 63.696 141.89 63.864 141.89 63.912C141.89 64.2 142.01 64.392 142.25 64.488C142.442 64.44 142.778 64.32 143.258 64.128C143.738 63.888 144.218 63.672 144.698 63.48C145.226 63.24 145.73 63.048 146.21 62.904C146.69 62.712 147.026 62.616 147.218 62.616C147.458 62.616 147.674 62.664 147.866 62.76C148.058 62.808 148.154 63.072 148.154 63.552C148.154 64.032 147.986 64.608 147.65 65.28C147.314 65.952 146.81 66.624 146.138 67.296ZM136.202 38.784L137.786 39.072C138.314 39.168 138.794 39.216 139.226 39.216C139.706 39.216 140.258 39.072 140.882 38.784C141.554 38.448 142.202 37.992 142.826 37.416C143.498 36.84 144.074 36.12 144.554 35.256C145.082 34.392 145.466 33.408 145.706 32.304L145.85 31.872C145.178 31.872 144.17 32.04 142.826 32.376C141.482 32.712 140.09 33.168 138.65 33.744C137.21 34.272 135.866 34.92 134.618 35.688C133.37 36.408 132.506 37.2 132.026 38.064C132.746 38.208 133.442 38.352 134.114 38.496C134.834 38.592 135.53 38.688 136.202 38.784ZM132.89 44.112C132.986 44.016 133.034 43.872 133.034 43.68C133.082 43.488 133.106 43.344 133.106 43.248L129.722 42.024L129.362 43.032L132.89 44.112ZM130.874 60.456C130.538 60.072 130.202 59.688 129.866 59.304C129.578 58.968 129.338 58.632 129.146 58.296C129.578 59.112 130.154 59.832 130.874 60.456ZM186.476 47.136C185.18 47.136 184.196 47.112 183.524 47.064C182.9 47.016 182.324 46.992 181.796 46.992C180.356 46.992 179.084 47.064 177.98 47.208C176.876 47.352 175.94 47.64 175.172 48.072C174.404 48.504 173.828 49.128 173.444 49.944C173.06 50.76 172.868 51.84 172.868 53.184C172.868 55.152 173.084 56.616 173.516 57.576C173.996 58.488 174.644 59.16 175.46 59.592C176.324 59.976 177.356 60.216 178.556 60.312C179.756 60.408 181.1 60.624 182.588 60.96C183.452 61.056 184.316 61.128 185.18 61.176C186.044 61.176 186.908 61.176 187.772 61.176H192.956C190.556 61.032 188.156 60.96 185.756 60.96C183.404 60.912 181.268 60.696 179.348 60.312C177.476 59.928 175.94 59.256 174.74 58.296C173.588 57.336 173.012 55.872 173.012 53.904C173.012 52.32 173.204 51.12 173.588 50.304C174.02 49.44 174.572 48.816 175.244 48.432C175.964 48 176.804 47.76 177.764 47.712C178.724 47.616 179.756 47.568 180.86 47.568C182.204 47.568 183.572 47.64 184.964 47.784C183.86 48.12 182.732 48.384 181.58 48.576C180.476 48.72 179.444 48.888 178.484 49.08C177.524 49.224 176.684 49.44 175.964 49.728C175.292 49.968 174.836 50.328 174.596 50.808V54.048L174.02 54.336C174.212 55.536 174.38 56.448 174.524 57.072C174.716 57.648 175.196 58.104 175.964 58.44C176.732 58.728 177.956 58.968 179.636 59.16C181.364 59.352 183.86 59.664 187.124 60.096H192.308C193.22 60.096 193.748 60.072 193.892 60.024C194.084 59.928 194.204 59.88 194.252 59.88L193.604 55.992C193.508 55.032 193.388 54.168 193.244 53.4C193.1 52.632 192.908 51.816 192.668 50.952C192.62 51.096 192.476 51.168 192.236 51.168C192.476 51.984 192.668 52.848 192.812 53.76C193.004 54.672 193.148 55.536 193.244 56.352C193.388 57.168 193.484 57.864 193.532 58.44C193.628 59.016 193.724 59.352 193.82 59.448L193.388 59.592C193.292 59.64 193.148 59.664 192.956 59.664H192.524C192.188 59.664 191.804 59.64 191.372 59.592C190.94 59.496 190.388 59.448 189.716 59.448H187.34C185.468 59.448 183.74 59.352 182.156 59.16C180.668 58.968 179.372 58.728 178.268 58.44C179.372 58.68 180.716 58.872 182.3 59.016C183.98 59.208 185.54 59.304 186.98 59.304C187.604 59.304 188.252 59.304 188.924 59.304C189.644 59.256 190.412 59.232 191.228 59.232H193.604C193.46 59.088 193.292 59.016 193.1 59.016H192.956C192.764 55.704 192.332 52.536 191.66 49.512C190.988 46.488 189.908 43.848 188.42 41.592C186.932 39.288 184.988 37.464 182.588 36.12C180.188 34.728 177.188 34.032 173.588 34.032C172.58 34.032 171.572 34.104 170.564 34.248C169.556 34.392 168.524 34.584 167.468 34.824C167.564 34.728 167.612 34.632 167.612 34.536C167.612 34.296 167.516 34.08 167.324 33.888C167.132 33.648 167.036 33.408 167.036 33.168C167.036 32.88 167.324 32.616 167.9 32.376C168.524 32.088 169.82 31.824 171.788 31.584C171.692 31.488 171.62 31.344 171.572 31.152C171.572 30.96 171.572 30.816 171.572 30.72C168.98 30.72 166.964 30.672 165.524 30.576C164.084 30.432 163.364 30.072 163.364 29.496C163.364 29.256 163.652 28.92 164.228 28.488C164.852 28.056 165.716 27.648 166.82 27.264C167.924 26.832 169.244 26.472 170.78 26.184C172.364 25.848 174.116 25.68 176.036 25.68C179.732 25.68 182.9 26.256 185.54 27.408C188.18 28.512 190.388 30 192.164 31.872C193.988 33.696 195.452 35.784 196.556 38.136C197.708 40.488 198.62 42.864 199.292 45.264C200.012 47.616 200.54 49.92 200.876 52.176C201.212 54.384 201.524 56.304 201.812 57.936C201.812 58.224 201.812 58.512 201.812 58.8C201.86 59.088 201.884 59.424 201.884 59.808C201.884 61.2 201.62 62.424 201.092 63.48C200.612 64.488 199.916 65.328 199.004 66C198.14 66.72 197.108 67.248 195.908 67.584C194.756 67.968 193.508 68.16 192.164 68.16C191.108 68.16 189.74 68.136 188.06 68.088C186.38 68.04 184.772 67.896 183.236 67.656C182.228 67.416 181.124 67.224 179.924 67.08C178.724 66.984 177.5 66.792 176.252 66.504C175.004 66.216 173.78 65.808 172.58 65.28C171.428 64.752 170.372 63.96 169.412 62.904C168.5 61.8 167.756 60.384 167.18 58.656C166.652 56.928 166.388 54.744 166.388 52.104C166.388 49.608 166.964 47.616 168.116 46.128C169.268 44.592 170.636 43.416 172.22 42.6C173.852 41.736 175.508 41.184 177.188 40.944C178.868 40.656 180.236 40.512 181.292 40.512C182.636 40.512 183.524 40.608 183.956 40.8C184.388 40.992 184.604 41.184 184.604 41.376C184.604 41.52 184.58 41.64 184.532 41.736C183.332 41.736 181.796 41.784 179.924 41.88C178.052 41.976 176.228 42.288 174.452 42.816C172.724 43.344 171.236 44.16 169.988 45.264C168.74 46.32 168.116 47.832 168.116 49.8C168.548 48.024 169.268 46.632 170.276 45.624C171.332 44.568 172.532 43.8 173.876 43.32C175.22 42.792 176.588 42.48 177.98 42.384C179.42 42.24 180.716 42.168 181.868 42.168H184.316C184.124 42.36 184.028 42.552 184.028 42.744C184.028 42.936 184.124 43.104 184.316 43.248H187.124C187.892 43.392 188.444 43.656 188.78 44.04C189.116 44.376 189.284 44.688 189.284 44.976C189.284 45.408 189.068 45.792 188.636 46.128C188.204 46.464 187.484 46.8 186.476 47.136ZM174.38 64.56C175.724 65.088 177.092 65.496 178.484 65.784C179.924 66.072 181.34 66.264 182.732 66.36C184.124 66.504 185.42 66.576 186.62 66.576C185.66 66.48 184.7 66.312 183.74 66.072C182.732 65.832 181.844 65.616 181.076 65.424C180.26 65.232 179.444 65.112 178.628 65.064C177.86 64.968 177.044 64.848 176.18 64.704C175.364 64.56 174.524 64.344 173.66 64.056C172.796 63.72 171.932 63.24 171.068 62.616C171.98 63.432 173.084 64.08 174.38 64.56ZM175.1 57C175.052 56.952 175.196 57.096 175.532 57.432C175.82 57.72 176.204 57.936 176.684 58.08C176.444 57.984 176.084 57.864 175.604 57.72C175.076 57.528 174.812 57.24 174.812 56.856L175.1 57ZM176.9 58.08C176.852 58.08 176.78 58.08 176.684 58.08C176.732 58.08 176.804 58.08 176.9 58.08ZM239.733 28.776C237.573 29.16 235.485 29.568 233.469 30C231.453 30.384 229.293 30.744 226.989 31.08V31.152C229.053 31.008 231.117 30.72 233.181 30.288C235.245 29.808 237.357 29.52 239.517 29.424C239.277 30 238.653 30.504 237.645 30.936C236.685 31.32 235.821 31.512 235.053 31.512C234.285 31.512 233.901 31.32 233.901 30.936C232.749 31.416 231.597 31.704 230.445 31.8L226.989 32.088V32.664C228.141 32.472 229.269 32.304 230.373 32.16C231.333 32.064 232.317 31.92 233.325 31.728C231.213 32.208 229.101 32.592 226.989 32.88V38.496C226.845 40.944 226.773 43.44 226.773 45.984C226.773 48.528 226.701 51.072 226.557 53.616C226.413 56.112 226.125 58.608 225.693 61.104C225.261 63.552 224.541 65.952 223.533 68.304C223.101 69.6 222.573 70.896 221.949 72.192C221.325 73.536 220.677 74.736 220.005 75.792C219.381 76.896 218.757 77.784 218.133 78.456C217.557 79.128 217.053 79.464 216.621 79.464C216.429 79.464 216.285 79.344 216.189 79.104C216.957 78 217.773 76.848 218.637 75.648C219.501 74.448 220.269 73.152 220.941 71.76C221.469 70.416 221.925 69.12 222.309 67.872C222.693 66.624 223.053 65.328 223.389 63.984C222.621 66.816 221.589 69.456 220.293 71.904C218.997 74.4 217.557 76.656 215.973 78.672C215.877 78.432 215.757 78.264 215.613 78.168C215.469 78.072 215.229 78.024 214.893 78.024L213.597 79.968C212.637 80.976 211.869 81.48 211.293 81.48C210.909 81.48 210.621 81.264 210.429 80.832C210.237 80.4 210.141 79.824 210.141 79.104L210.573 77.376L211.437 76.296C212.493 75.048 213.429 73.848 214.245 72.696C215.061 71.544 215.757 70.32 216.333 69.024C216.957 67.776 217.485 66.408 217.917 64.92C218.397 63.432 218.829 61.704 219.213 59.736C218.973 60.888 218.661 62.064 218.277 63.264C217.941 64.464 217.557 65.616 217.125 66.72C216.693 67.824 216.213 68.832 215.685 69.744C215.205 70.704 214.653 71.496 214.029 72.12L211.005 75.864C211.389 74.712 211.869 73.632 212.445 72.624C213.021 71.664 213.621 70.632 214.245 69.528C214.869 68.424 215.469 67.2 216.045 65.856C216.621 64.512 217.101 62.904 217.485 61.032L218.133 60.96C218.517 58.368 218.757 55.824 218.853 53.328C218.997 50.784 219.069 48.192 219.069 45.552C219.069 43.68 219.045 41.784 218.997 39.864C218.997 37.944 218.973 35.976 218.925 33.96C218.829 34.008 218.709 34.032 218.565 34.032H218.205C218.253 36.576 218.325 39.048 218.421 41.448C218.565 43.848 218.637 46.224 218.637 48.576C218.637 50.592 218.541 52.584 218.349 54.552C218.205 56.424 217.917 58.296 217.485 60.168C217.869 58.488 218.109 56.784 218.205 55.056C218.349 53.28 218.421 51.48 218.421 49.656C218.421 47.16 218.349 44.616 218.205 42.024C218.061 39.432 217.965 36.768 217.917 34.032C217.629 34.08 217.293 34.128 216.909 34.176C216.525 34.176 215.925 34.176 215.109 34.176C214.005 33.744 212.925 33.528 211.869 33.528V33.24C211.869 33.048 211.845 32.856 211.797 32.664C211.797 32.424 211.797 32.184 211.797 31.944C211.797 31.368 212.061 31.08 212.589 31.08L213.165 30.288C212.493 30.048 211.989 29.664 211.653 29.136C211.317 28.608 211.149 28.08 211.149 27.552C211.149 26.832 211.389 26.328 211.869 26.04C212.349 25.752 212.949 25.56 213.669 25.464C214.389 25.32 215.157 25.272 215.973 25.32C216.789 25.32 217.533 25.272 218.205 25.176C218.397 23.304 218.709 21.336 219.141 19.272C219.621 17.16 220.317 15.096 221.229 13.08C222.141 11.064 223.317 9.168 224.757 7.392C226.245 5.616 228.069 4.104 230.229 2.856C232.293 1.608 234.429 0.863996 236.637 0.623996C238.893 0.335997 241.053 0.191998 243.117 0.191998H244.485C244.917 0.191998 245.349 0.215997 245.781 0.263997L245.853 1.776C245.853 1.968 245.805 2.136 245.709 2.28C245.613 2.424 245.397 2.544 245.061 2.64C244.773 2.688 244.317 2.736 243.693 2.784C243.069 2.832 242.253 2.856 241.245 2.856C241.245 2.952 241.245 3.096 241.245 3.288C241.293 3.432 241.365 3.504 241.461 3.504C243.477 3.648 244.989 4.08 245.997 4.8C247.053 5.52 247.581 6.072 247.581 6.456C247.581 6.888 247.101 7.224 246.141 7.464C245.229 7.704 244.077 7.968 242.685 8.256C241.341 8.496 239.877 8.808 238.293 9.192C236.757 9.576 235.365 10.128 234.117 10.848C230.181 13.584 227.925 18.072 227.349 24.312C228.405 24.216 229.461 24.072 230.517 23.88C231.621 23.688 232.677 23.592 233.685 23.592C234.069 23.592 234.501 23.472 234.981 23.232C235.461 22.992 235.893 22.872 236.277 22.872C236.517 22.872 236.685 22.944 236.781 23.088C236.925 23.184 237.117 23.424 237.357 23.808C236.205 24.432 235.101 24.864 234.045 25.104C234.525 25.008 235.053 24.912 235.629 24.816C236.205 24.672 236.781 24.48 237.357 24.24C237.453 24.48 237.525 24.696 237.573 24.888C237.621 25.08 237.693 25.224 237.789 25.32C237.837 25.32 237.909 25.296 238.005 25.248C238.197 25.152 238.341 25.104 238.437 25.104C238.965 25.296 239.349 25.632 239.589 26.112C239.877 26.592 240.021 27.072 240.021 27.552C240.021 27.792 239.997 28.032 239.949 28.272C239.949 28.464 239.877 28.632 239.733 28.776ZM219.861 56.208C220.053 55.152 220.221 54.072 220.365 52.968C220.557 51.816 220.653 50.664 220.653 49.512C220.653 47.688 220.533 45.84 220.293 43.968C220.101 42.24 219.957 40.536 219.861 38.856C219.909 40.44 219.957 42 220.005 43.536C220.101 45.216 220.149 46.872 220.149 48.504C220.149 50.28 220.077 52.032 219.933 53.76C219.837 55.44 219.669 57.12 219.429 58.8V58.872L219.861 56.208ZM225.045 53.04C224.901 56.352 224.421 59.784 223.605 63.336C224.421 59.928 224.925 56.52 225.117 53.112C225.357 49.8 225.477 46.536 225.477 43.32C225.381 46.536 225.237 49.776 225.045 53.04ZM227.277 25.536C227.709 25.68 228.213 25.752 228.789 25.752C229.461 25.752 230.133 25.68 230.805 25.536C231.525 25.392 232.197 25.248 232.821 25.104C231.861 25.2 230.925 25.296 230.013 25.392C229.149 25.488 228.237 25.536 227.277 25.536ZM233.901 31.584C233.709 31.632 233.541 31.68 233.397 31.728C233.541 31.68 233.709 31.632 233.901 31.584Z" fill="black"/>
</g>
<defs>
<filter id="filter0_d_47_131" x="0.552734" y="0.191986" width="252.028" height="91.288" filterUnits="userSpaceOnUse" color-interpolation-filters="sRGB">
<feFlood flood-opacity="0" result="BackgroundImageFix"/>
<feColorMatrix in="SourceAlpha" type="matrix" values="0 0 0 0 0 0 0 0 0 0 0 0 0 0 0 0 0 0 127 0" result="hardAlpha"/>
<feOffset dy="5"/>
<feGaussianBlur stdDeviation="2.5"/>
<feComposite in2="hardAlpha" operator="out"/>
<feColorMatrix type="matrix" values="0 0 0 0 0.965132 0 0 0 0 0.979167 0 0 0 0 0.277431 0 0 0 1 0"/>
<feBlend mode="normal" in2="BackgroundImageFix" result="effect1_dropShadow_47_131"/>
<feBlend mode="normal" in="SourceGraphic" in2="effect1_dropShadow_47_131" result="shape"/>
</filter>
</defs>
</svg>
