<svg width="579" height="1024" viewBox="0 0 579 1024" fill="none" xmlns="http://www.w3.org/2000/svg">
  <g filter="url(#filter0_d_3_183)">
  <path d="M458.476 -12.261C-111.493 221.192 891.99 738.523 453.359 1026.34L23 1024.22L28.117 -14.3813L458.476 -12.261Z" fill="#22B14C"/>
  <path d="M459.045 -10.8729L458.484 -13.761L28.1244 -15.8813L26.617 -14.3887L21.5 1024.21L22.9926 1025.72L453.352 1027.84L454.182 1027.6C509.21 991.487 541.753 951.691 557.543 909.176C573.33 866.666 572.304 821.61 560.508 775.097C538.642 688.871 479.643 597.243 421.444 506.859C416.928 499.845 412.417 492.839 407.928 485.843C376.728 437.218 346.596 389.082 323.38 342.394C300.16 295.698 283.911 250.551 280.398 207.911C276.889 165.318 286.084 125.212 313.801 88.4916C341.547 51.7321 387.942 18.2498 459.045 -10.8729Z" stroke="black" stroke-width="3" stroke-linejoin="bevel"/>
  </g>
  <defs>
  <filter id="filter0_d_3_183" x="0" y="-27.3813" width="590.882" height="1086.72" filterUnits="userSpaceOnUse" color-interpolation-filters="sRGB">
  <feFlood flood-opacity="0" result="BackgroundImageFix"/>
  <feColorMatrix in="SourceAlpha" type="matrix" values="0 0 0 0 0 0 0 0 0 0 0 0 0 0 0 0 0 0 127 0" result="hardAlpha"/>
  <feOffset dy="10"/>
  <feGaussianBlur stdDeviation="10"/>
  <feComposite in2="hardAlpha" operator="out"/>
  <feColorMatrix type="matrix" values="0 0 0 0 0 0 0 0 0 0 0 0 0 0 0 0 0 0 1 0"/>
  <feBlend mode="normal" in2="BackgroundImageFix" result="effect1_dropShadow_3_183"/>
  <feBlend mode="normal" in="SourceGraphic" in2="effect1_dropShadow_3_183" result="shape"/>
  </filter>
  </defs>
</svg>
