<svg width="40" height="32" viewBox="0 0 40 32" fill="none" xmlns="http://www.w3.org/2000/svg">
<path d="M37.8656 15.328L20.3156 0.928C19.6136 0.352 18.6386 0 17.5661 0H3.91611C1.77111 0 0.0161133 1.44 0.0161133 3.2V14.4C0.0161133 15.28 0.445113 16.08 1.16661 16.672L18.7166 31.072C19.4186 31.648 20.3936 32 21.4661 32C22.5386 32 23.5136 31.648 24.2156 31.056L37.8656 19.856C38.5871 19.28 39.0161 18.48 39.0161 17.6C39.0161 16.72 38.5676 15.904 37.8656 15.328ZM21.4661 28.816L3.91611 14.4V3.2H17.5661V3.184L35.1161 17.584L21.4661 28.816Z" fill="black"/>
</svg>
